<svg xmlns="http://www.w3.org/2000/svg" width="145" height="76" viewBox="0 0 145 76"><g><g><g><g><g><path fill="#f3dabb" d="M24.04 46.12v.777h-1.933v-.776a20.921 20.921 0 0 0 1.933 0z"/></g></g><g><path fill="#f3dabb" d="M2.181 23.072c0-11.538 9.354-20.891 20.892-20.891 11.537 0 20.89 9.353 20.89 20.891 0 11.538-9.353 20.891-20.89 20.891-11.538 0-20.892-9.353-20.892-20.89z"/></g><g><path fill="#262626" d="M37.846 37.843a20.81 20.81 0 0 1-12.47 5.995c-.766.086-1.534.127-2.303.127-.768 0-1.537-.041-2.301-.127A20.801 20.801 0 0 1 8.3 37.843C.142 29.684.142 16.459 8.3 8.3a20.816 20.816 0 0 1 14.773-6.118A20.823 20.823 0 0 1 37.846 8.3c8.155 8.16 8.155 21.384 0 29.543zM24.04 46.897h-1.933v-.776a20.835 20.835 0 0 0 1.933 0zM39.387 6.76C35.03 2.402 29.237 0 23.073 0 16.911 0 11.117 2.402 6.76 6.76 2.402 11.117 0 16.91 0 23.073c0 6.163 2.402 11.957 6.76 16.314 3.592 3.593 8.162 5.853 13.109 6.536v1.31c0 1.048.854 1.902 1.903 1.902h.182v25.402a1.12 1.12 0 0 0 2.238 0V49.135h.18a1.907 1.907 0 0 0 1.906-1.902v-1.31c4.947-.683 9.517-2.943 13.11-6.536a22.919 22.919 0 0 0 6.755-16.314A22.919 22.919 0 0 0 39.387 6.76z"/></g><g><path fill="#f3dabb" d="M37.846 37.843a20.811 20.811 0 0 1-12.47 5.995c-.766.086-1.534.127-2.303.127-.768 0-1.536-.041-2.301-.127A20.801 20.801 0 0 1 8.3 37.843C.142 29.684.142 16.459 8.3 8.3a20.816 20.816 0 0 1 14.773-6.118A20.823 20.823 0 0 1 37.846 8.3c8.156 8.16 8.156 21.384 0 29.543z"/></g><g><path fill="#ee948f" d="M10.628 11.166l24.35 24.35c.817.816.75 2.176-.165 2.88a19.228 19.228 0 0 1-11.349 3.975l-.385.002-.385-.002a19.229 19.229 0 0 1-12.99-5.384c-.096-.085-.188-.178-.279-.268-.09-.09-.183-.183-.267-.278a19.227 19.227 0 0 1-5.382-12.988l-.002-.385.002-.385A19.213 19.213 0 0 1 7.75 11.332c.703-.916 2.063-.982 2.88-.166z"/></g><g><path fill="#262626" d="M9.253 10.597c.495 0 .994.188 1.375.569l24.35 24.35c.817.816.75 2.176-.165 2.88a19.232 19.232 0 0 1-11.349 3.975c-.13 0-.26.003-.385.003s-.254-.003-.385-.003a19.23 19.23 0 0 1-12.99-5.384c-.096-.085-.188-.178-.279-.268-.09-.09-.183-.183-.267-.278a19.227 19.227 0 0 1-5.382-12.988l-.002-.385.002-.385A19.213 19.213 0 0 1 7.75 11.331a1.883 1.883 0 0 1 1.504-.734zm.043 2.402a16.876 16.876 0 0 0-3.281 9.708l-.002.197v.329l.002.196a16.993 16.993 0 0 0 4.755 11.46l.063.067c.055.062.115.12.174.18.06.06.12.12.181.176l.068.062a17 17 0 0 0 11.658 4.76l.165.001h.165c.064-.002.13-.002.196-.002a16.89 16.89 0 0 0 9.706-3.284l-23.85-23.85m.228-.304"/></g><g><g><path fill="#8dc9bd" d="M42.208 25.67a19.196 19.196 0 0 1-3.804 9.135c-.703.915-2.063.981-2.88.165l-8.218-8.219c-1.216-1.216-.355-3.295 1.365-3.295h11.626c1.179 0 2.07 1.045 1.91 2.213z"/></g><g><path fill="#262626" d="M40.297 23.456c1.179 0 2.07 1.045 1.91 2.213a19.196 19.196 0 0 1-3.803 9.136 1.883 1.883 0 0 1-1.504.735 1.94 1.94 0 0 1-1.375-.57l-8.22-8.219c-1.215-1.216-.354-3.295 1.366-3.295h11.626zm-.354 2.238h-10.53l7.444 7.443a17.01 17.01 0 0 0 3.086-7.443"/></g><g><path fill="#8dc9bd" d="M38.404 11.331a19.198 19.198 0 0 1 3.802 9.139c.157 1.168-.733 2.213-1.912 2.213H28.668c-1.72 0-2.581-2.08-1.365-3.296l8.221-8.22c.816-.817 2.177-.75 2.88.164z"/></g><g><path fill="#262626" d="M36.9 10.597c.567 0 1.129.246 1.504.735a19.195 19.195 0 0 1 3.802 9.138c.157 1.168-.733 2.213-1.912 2.213H28.668c-1.72 0-2.581-2.08-1.365-3.296l8.221-8.22c.381-.382.88-.57 1.376-.57zm-.043 2.402l-7.446 7.446h10.53a17.014 17.014 0 0 0-3.084-7.446zm.25-.25"/></g><g><path fill="#8dc9bd" d="M34.978 10.62L26.76 18.84c-1.217 1.216-3.296.354-3.296-1.365V5.854c0-1.18 1.045-2.07 2.213-1.912a19.2 19.2 0 0 1 9.135 3.799c.916.703.982 2.063.166 2.88z"/></g><g><path fill="#262626" d="M25.409 3.923c.088 0 .178.006.268.019 3.25.439 6.41 1.705 9.135 3.799.916.703.982 2.063.166 2.88l-8.218 8.218c-.394.393-.877.569-1.351.569-.993 0-1.945-.77-1.945-1.934V5.853c0-1.087.89-1.93 1.945-1.93zm.293 2.284V16.73l7.443-7.442a17.014 17.014 0 0 0-7.443-3.081"/></g><g><path fill="#8dc9bd" d="M22.691 5.85v11.626c0 1.72-2.079 2.582-3.295 1.366l-8.222-8.222c-.816-.816-.75-2.176.166-2.88a19.187 19.187 0 0 1 9.139-3.802c1.168-.157 2.212.733 2.212 1.911z"/></g><g><path fill="#262626" d="M20.747 3.92c1.055 0 1.944.842 1.944 1.93v11.626c0 1.164-.952 1.935-1.944 1.935a1.89 1.89 0 0 1-1.351-.57l-8.222-8.22c-.816-.817-.75-2.177.166-2.88a19.183 19.183 0 0 1 9.139-3.803c.09-.012.18-.018.268-.018zm-.294 2.283a17.001 17.001 0 0 0-7.446 3.085l7.446 7.445V6.203m.325-.047"/></g></g></g><g><g><g><g><path fill="#2c2e41" d="M67.251 25.192c-.918 0-1.485.593-1.835 1.324L61.23 37.745l-4.186-11.229c-.35-.731-.917-1.324-1.835-1.324-1.078 0-2.078.81-2.078 1.943 0 .377.052.65.19 1l5.913 15.038c.35.862.81 1.567 1.996 1.567 1.19 0 1.649-.705 2-1.567l5.913-15.038c.134-.35.186-.623.186-1 0-1.134-1-1.943-2.078-1.943z"/></g><g><path fill="#2c2e41" d="M74.84 32.213V42.58c0 1.294-.814 2.16-1.948 2.16-1.13 0-1.944-.866-1.944-2.16V32.213c0-1.299.813-2.16 1.944-2.16 1.134 0 1.947.861 1.947 2.16zm.242-5.861c0 1.216-.974 2.242-2.19 2.242-1.16 0-2.186-1.052-2.186-2.242 0-1.108 1.026-2.134 2.186-2.134 1.164 0 2.19 1 2.19 2.134z"/></g><g><path fill="#2c2e41" d="M83.613 30.213h-1.108v-2.32c0-1.299-.81-2.16-1.943-2.16-1.134 0-1.944.861-1.944 2.16v2.32h-.865c-.97 0-1.701.727-1.701 1.701 0 1.052.649 1.701 1.7 1.701h.866v8.965c0 1.294.81 2.16 1.944 2.16s1.943-.866 1.943-2.16v-8.965h1.108c.996 0 1.862-.485 1.862-1.7 0-1.243-.866-1.702-1.862-1.702z"/></g><g><path fill="#2c2e41" d="M94.868 38.745c0 1.861-.917 2.917-2.943 2.917-1.16 0-2.346-.354-2.346-1.406 0-2.377 2.943-2.13 5.29-2.13zm-1.861-8.857c-2.294 0-5.398 1.35-5.398 2.918 0 .783.485 1.645 1.697 1.645 1.03 0 1.433-1.32 3.7-1.32 1.08 0 1.702.268 1.702 1.025v1.052c-3.592 0-8.856.567-8.856 5.048 0 3.051 2.242 4.644 5.372 4.644 1.298 0 2.97-.54 3.644-1.593.299 1.216 1 1.433 1.836 1.433 1.134 0 1.891-.948 1.891-2.082v-8.423c0-2.806-1.996-4.347-5.588-4.347z"/></g><g><path fill="#2c2e41" d="M116.82 29.888c-1.325 0-3.023.732-4.105 1.97-1.025-1.294-2.402-1.97-4.021-1.97-1.433 0-2.675.594-3.619 1.62-.134-.918-.783-1.455-1.783-1.455-1.134 0-1.944.861-1.944 2.16V42.58c0 1.294.81 2.16 1.944 2.16s1.944-.866 1.944-2.16V35.8c0-1.566.701-2.67 2.294-2.67 1.406 0 2.268 1.104 2.268 2.67v6.779c0 1.294.81 2.16 1.944 2.16s1.943-.866 1.943-2.16V35.8c0-1.566.866-2.67 2.298-2.67 1.403 0 2.269 1.104 2.269 2.67v6.779c0 1.294.81 2.16 1.943 2.16 1.134 0 1.944-.866 1.944-2.16v-7.454c0-3.402-2.16-5.238-5.32-5.238z"/></g><g><path fill="#2c2e41" d="M128.861 32.213V42.58c0 1.294-.81 2.16-1.943 2.16-1.134 0-1.944-.866-1.944-2.16V32.213c0-1.299.81-2.16 1.944-2.16s1.943.861 1.943 2.16zm.243-5.861c0 1.216-.974 2.242-2.186 2.242-1.164 0-2.19-1.052-2.19-2.242 0-1.108 1.026-2.134 2.19-2.134 1.16 0 2.186 1 2.186 2.134z"/></g><g><path fill="#2c2e41" d="M139.173 29.888c-1.836 0-2.996.541-3.753 1.593-.135-.891-.784-1.428-1.78-1.428-1.134 0-1.943.861-1.943 2.16V42.58c0 1.294.81 2.16 1.943 2.16 1.134 0 1.944-.866 1.944-2.16V35.8c0-1.51.891-2.67 2.48-2.67 1.407 0 2.541.861 2.541 2.67v6.779c0 1.294.81 2.16 1.944 2.16s1.943-.866 1.943-2.16v-7.454c0-3.294-2.268-5.238-5.32-5.238z"/></g><g><path fill="#2c2e41" d="M41.86 68.094V63.61h2.86c1.892 0 2.862.865 2.862 2.134 0 1.51-1.078 2.35-2.537 2.35zm0-12.095h2.107c1.186 0 2.186.646 2.186 1.918 0 1.347-.866 2.13-2.186 2.13h-2.108zm5.83 5.208v-.052c1.73-.81 2.51-2.078 2.51-3.97 0-2.86-2.264-4.752-5.073-4.752h-5.185c-1.243 0-2.13.731-2.13 2.026v15.146c0 1.268.917 2.051 2.156 2.051h5.562c3.727 0 6.264-2.051 6.264-5.857 0-2.35-1.806-4.267-4.104-4.592z"/></g><g><path fill="#2c2e41" d="M62.407 65.826c0 1.861-.918 2.917-2.943 2.917-1.164 0-2.35-.354-2.35-1.407 0-2.376 2.943-2.13 5.293-2.13zm-1.865-8.857c-2.295 0-5.398 1.35-5.398 2.918 0 .783.485 1.645 1.7 1.645 1.027 0 1.43-1.32 3.698-1.32 1.082 0 1.7.268 1.7 1.025v1.052c-3.588 0-8.855.567-8.855 5.047 0 3.052 2.242 4.645 5.375 4.645 1.295 0 2.97-.54 3.645-1.593.295 1.216.996 1.433 1.835 1.433 1.135 0 1.888-.948 1.888-2.082v-8.424c0-2.805-1.996-4.346-5.588-4.346z"/></g><g><path fill="#2c2e41" d="M70.775 50.87c-1.134 0-1.944.862-1.944 2.156v16.635c0 1.294.81 2.16 1.944 2.16s1.943-.866 1.943-2.16V53.026c0-1.294-.81-2.156-1.943-2.156z"/></g><g><path fill="#2c2e41" d="M77.441 50.87c-1.134 0-1.943.862-1.943 2.156v16.635c0 1.294.81 2.16 1.943 2.16 1.134 0 1.944-.866 1.944-2.16V53.026c0-1.294-.81-2.156-1.944-2.156z"/></g><g><path fill="#2c2e41" d="M88.618 62.017c-2.104 0-3.078-2.052-3.078-3.914 0-1.865.948-3.969 3.078-3.969 2.134 0 3.081 2.104 3.081 3.97 0 1.861-.973 3.913-3.081 3.913zm0-11.45c-4.104 0-6.965 3.593-6.965 7.536 0 3.802 2.455 7.055 6.215 7.435v.291c0 .15.123.273.272.273h.213v5.554h.534v-5.554h.212c.15 0 .273-.123.273-.273v-.29c3.764-.381 6.215-3.634 6.215-7.436 0-3.943-2.862-7.535-6.97-7.535z"/></g><g><path fill="#2c2e41" d="M104.305 65.572c-2.104 0-3.078-2.052-3.078-3.913 0-1.866.944-3.97 3.078-3.97s3.078 2.104 3.078 3.97c0 1.861-.97 3.913-3.078 3.913zm0-11.445c-4.104 0-6.965 3.589-6.965 7.532 0 3.801 2.455 7.054 6.215 7.435v.246c0 .15.12.272.272.272h.213v2.045h.533v-2.045h.213c.15 0 .272-.123.272-.272v-.246c3.765-.38 6.212-3.634 6.212-7.435 0-3.943-2.861-7.532-6.965-7.532z"/></g><g><path fill="#2c2e41" d="M121.07 56.97c-1.835 0-2.996.54-3.75 1.592-.137-.891-.783-1.429-1.782-1.429-1.134 0-1.944.862-1.944 2.16v10.368c0 1.294.81 2.16 1.944 2.16s1.943-.866 1.943-2.16v-6.779c0-1.51.892-2.67 2.485-2.67 1.402 0 2.537.86 2.537 2.67v6.779c0 1.294.81 2.16 1.943 2.16 1.134 0 1.944-.866 1.944-2.16v-7.454c0-3.294-2.268-5.238-5.32-5.238z"/></g><g><path fill="#2c2e41" d="M132.654 61.45c0-.754.619-1.078 1.324-1.078 1.268 0 2.753 1.134 3.48 1.134.918 0 1.593-.836 1.593-1.728 0-1.917-2.943-2.809-4.857-2.809-3.077 0-5.267 1.836-5.267 4.537 0 4.454 6.752 4.185 6.752 5.965 0 .731-.35 1.108-1.54 1.108-1.836 0-2.511-1.325-4.022-1.325-1.082 0-1.675 1.135-1.675 1.731 0 1.754 3.242 2.996 5.428 2.996 3.346 0 5.532-1.97 5.532-4.562 0-4.428-6.748-4.16-6.748-5.97z"/></g></g></g></g></g></g></svg>